<?xml version="1.0" encoding="UTF-8" standalone="no"?>
<!DOCTYPE svg PUBLIC "-//W3C//DTD SVG 1.1//EN" "http://www.w3.org/Graphics/SVG/1.1/DTD/svg11.dtd">
<!-- Created with Vectornator (http://vectornator.io/) -->
<svg height="100%" stroke-miterlimit="10" style="fill-rule:nonzero;clip-rule:evenodd;stroke-linecap:round;stroke-linejoin:round;" version="1.1" viewBox="0 0 780 242.36" width="100%" xml:space="preserve" xmlns="http://www.w3.org/2000/svg" xmlns:vectornator="http://vectornator.io" xmlns:xlink="http://www.w3.org/1999/xlink">
<defs>
<filter color-interpolation-filters="sRGB" filterUnits="userSpaceOnUse" height="232.241" id="Filter" width="769.977" x="3.59833" y="6.42532">
<feDropShadow dx="-1.41421" dy="1.41421" flood-color="#000000" flood-opacity="0.703229" in="SourceGraphic" result="Shadow" stdDeviation="10"/>
</filter>
</defs>
<g id="Layer-1" vectornator:layerName="Layer 1">
<g opacity="1" vectornator:layerName="Group 2">
<path d="M38.3363 30.0111L30.0125 70.8857L85.9912 70.8857L57.6022 212.252L109.143 212.252L137.532 70.8857L180.805 70.8857L152.554 212.252L204.095 212.252L218.152 141.445L288.214 141.445L274.158 212.252L325.699 212.252L342.236 129.538L352.407 212.252L407.889 212.252L465.935 102.389L479.22 212.252L534.427 212.252L579.877 125.597L562.54 212.252L614.081 212.252L623.452 164.624L659.917 164.624C677.97 164.624 693.808 161.502 707.434 155.253C721.061 149.004 731.56 140.14 738.938 128.683C746.315 117.227 749.99 103.856 749.99 88.5806C749.99 70.0069 743.569 55.6048 730.724 45.3632C717.879 35.1217 699.648 30.0111 676.041 30.0111L629.985 30.0111L598.977 30.0111L578.94 30.0111L516.98 147.949L503.971 30.0111L456.316 30.0111L394.852 146.378L380.796 30.0111L362.164 30.0111L330.026 30.0111L310.595 30.0111L297.062 98.2273L227.027 98.2273L240.56 30.0111L201.587 30.0111L38.3363 30.0111ZM642.195 70.6101L669.288 70.6101C678.488 70.6101 685.564 72.4731 690.511 76.2052C695.458 79.9373 697.925 85.5539 697.925 93.0181C697.925 102.912 694.854 110.541 688.692 115.922C682.53 121.303 673.716 123.998 662.26 123.998L631.528 123.998L642.195 70.6101Z" fill="#661aac" fill-rule="nonzero" filter="url(#Filter)" stroke="none" vectornator:layerName="Curve 1" vectornator:shadowAngle="-3.92699" vectornator:shadowColor="#000000" vectornator:shadowOffset="2" vectornator:shadowOpacity="0.703229" vectornator:shadowRadius="20"/>
<g opacity="1" vectornator:layerName="Group 1">
<path d="M85.9814 70.9755L30 70.9755L38.3321 30.0961L201.589 30.0961L193.257 70.9755L137.536 70.9755L109.155 212.361L57.6001 212.361L85.9814 70.9755Z" fill="#ffffff" fill-rule="nonzero" opacity="1" stroke="none"/>
<path d="M362.155 30.0961L325.702 212.361L274.147 212.361L288.207 141.538L218.165 141.538L204.105 212.361L152.55 212.361L189.003 30.0961L240.558 30.0961L227.018 98.3152L297.06 98.3152L310.6 30.0961L362.155 30.0961Z" fill="#ffffff" fill-rule="nonzero" opacity="1" stroke="none"/>
<path d="M676.053 30.0961C699.66 30.0961 717.887 35.2169 730.732 45.4584C743.577 55.7 750 70.1076 750 88.6812C750 103.957 746.311 117.323 738.934 128.78C731.557 140.236 721.055 149.089 707.428 155.338C693.802 161.587 677.962 164.712 659.909 164.712L623.456 164.712L614.082 212.361L562.528 212.361L598.98 30.0961L676.053 30.0961ZM662.252 124.093C673.709 124.093 682.519 121.402 688.681 116.021C694.843 110.64 697.924 103.002 697.924 93.1077C697.924 85.6435 695.451 80.0454 690.504 76.3133C685.556 72.5812 678.483 70.7151 669.283 70.7151L642.203 70.7151L631.528 124.093L662.252 124.093Z" fill="#ffffff" fill-rule="nonzero" opacity="1" stroke="none"/>
<path d="M630.143 29.999L534.533 212.361L479.303 212.361L466.017 102.423L407.921 212.361L352.431 212.361L330.027 29.999L380.828 29.999L394.896 146.45L456.378 29.999L504.052 29.999L517.078 148.013L579.081 29.999L630.143 29.999Z" fill="#661aac" fill-rule="nonzero" opacity="1" stroke="none"/>
</g>
</g>
</g>
</svg>
