<?xml version="1.0" encoding="UTF-8" standalone="no"?>
<!DOCTYPE svg PUBLIC "-//W3C//DTD SVG 1.1//EN" "http://www.w3.org/Graphics/SVG/1.1/DTD/svg11.dtd">
<!-- Created with Vectornator (http://vectornator.io/) -->
<svg height="100%" stroke-miterlimit="10" style="fill-rule:nonzero;clip-rule:evenodd;stroke-linecap:round;stroke-linejoin:round;" version="1.1" viewBox="0 0 760 222.36" width="100%" xml:space="preserve" xmlns="http://www.w3.org/2000/svg" xmlns:vectornator="http://vectornator.io" xmlns:xlink="http://www.w3.org/1999/xlink">
<defs>
<filter color-interpolation-filters="sRGB" filterUnits="userSpaceOnUse" height="207.241" id="Filter" width="744.977" x="6.09833" y="8.92532">
<feComponentTransfer in="SourceGraphic" result="Alpha">
<feFuncA slope="0" type="linear"/>
</feComponentTransfer>
<feDropShadow dx="-1.41421" dy="1.41421" flood-color="#000000" flood-opacity="0.2" in="Alpha" result="Shadow" stdDeviation="5"/>
</filter>
</defs>
<g id="Layer-1" vectornator:layerName="Layer 1">
<g opacity="1" vectornator:layerName="Group 2">
<path d="M28.3363 20.0111L20.0125 60.8857L75.9912 60.8857L47.6022 202.252L99.1434 202.252L127.532 60.8857L170.805 60.8857L142.554 202.252L194.095 202.252L208.152 131.445L278.214 131.445L264.158 202.252L315.699 202.252L332.236 119.538L342.407 202.252L397.889 202.252L455.935 92.3892L469.22 202.252L524.427 202.252L569.877 115.597L552.54 202.252L604.081 202.252L613.452 154.624L649.917 154.624C667.97 154.624 683.808 151.502 697.434 145.253C711.061 139.004 721.56 130.14 728.938 118.683C736.315 107.227 739.99 93.8561 739.99 78.5806C739.99 60.0069 733.569 45.6048 720.724 35.3632C707.879 25.1217 689.648 20.0111 666.041 20.0111L619.985 20.0111L588.977 20.0111L568.94 20.0111L506.98 137.949L493.971 20.0111L446.316 20.0111L384.852 136.378L370.796 20.0111L352.164 20.0111L320.026 20.0111L300.595 20.0111L287.062 88.2273L217.027 88.2273L230.56 20.0111L191.587 20.0111L28.3363 20.0111ZM632.195 60.6101L659.288 60.6101C668.488 60.6101 675.564 62.4731 680.511 66.2052C685.458 69.9373 687.925 75.5539 687.925 83.0181C687.925 92.9125 684.854 100.541 678.692 105.922C672.53 111.303 663.716 113.998 652.26 113.998L621.528 113.998L632.195 60.6101Z" fill="#661aac" fill-rule="nonzero" filter="url(#Filter)" stroke="none" vectornator:layerName="Curve 1" vectornator:shadowAngle="-3.92699" vectornator:shadowColor="#000000" vectornator:shadowOffset="2" vectornator:shadowOpacity="0.2" vectornator:shadowRadius="10"/>
<g opacity="1" vectornator:layerName="Group 1">
<path d="M75.9814 60.9755L20 60.9755L28.3321 20.0961L191.589 20.0961L183.257 60.9755L127.536 60.9755L99.1551 202.361L47.6001 202.361L75.9814 60.9755Z" fill="#ffffff" fill-rule="nonzero" opacity="1" stroke="none"/>
<path d="M352.155 20.0961L315.702 202.361L264.147 202.361L278.207 131.538L208.165 131.538L194.105 202.361L142.55 202.361L179.003 20.0961L230.558 20.0961L217.018 88.3152L287.06 88.3152L300.6 20.0961L352.155 20.0961Z" fill="#ffffff" fill-rule="nonzero" opacity="1" stroke="none"/>
<path d="M666.053 20.0961C689.66 20.0961 707.887 25.2169 720.732 35.4584C733.577 45.7 740 60.1076 740 78.6812C740 93.9568 736.311 107.323 728.934 118.78C721.557 130.236 711.055 139.089 697.428 145.338C683.802 151.587 667.962 154.712 649.909 154.712L613.456 154.712L604.082 202.361L552.528 202.361L588.98 20.0961L666.053 20.0961ZM652.252 114.093C663.709 114.093 672.519 111.402 678.681 106.021C684.843 100.64 687.924 93.0021 687.924 83.1077C687.924 75.6435 685.451 70.0454 680.504 66.3133C675.556 62.5812 668.483 60.7151 659.283 60.7151L632.203 60.7151L621.528 114.093L652.252 114.093Z" fill="#ffffff" fill-rule="nonzero" opacity="1" stroke="none"/>
<path d="M620.143 19.999L524.533 202.361L469.303 202.361L456.017 92.4228L397.921 202.361L342.431 202.361L320.027 19.999L370.828 19.999L384.896 136.45L446.378 19.999L494.052 19.999L507.078 138.013L569.081 19.999L620.143 19.999Z" fill="#661aac" fill-rule="nonzero" opacity="1" stroke="none"/>
</g>
</g>
</g>
</svg>
